Coordinates
version=1
nRows=13
nColumns=34
inDegrees=yes

Units are S.I. units (second, meters, Newtons, ...)
If the header above contains a line with 'inDegrees', this indicates whether rotational values are in degrees (yes) or radians (no).

endheader
time	pelvis_tilt	pelvis_list	pelvis_rotation	pelvis_tx	pelvis_ty	pelvis_tz	hip_flexion_r	hip_adduction_r	hip_rotation_r	knee_angle_r	ankle_angle_r	subtalar_angle_r	mtp_angle_r	hip_flexion_l	hip_adduction_l	hip_rotation_l	knee_angle_l	ankle_angle_l	subtalar_angle_l	mtp_angle_l	lumbar_extension	lumbar_bending	lumbar_rotation	arm_flex_r	arm_add_r	arm_rot_r	elbow_flex_r	pro_sup_r	arm_flex_l	arm_add_l	arm_rot_l	elbow_flex_l	pro_sup_l
     10.91666670	     62.13577526	    -18.89142065	    169.15479894	      0.31165752	      0.77358210	     -0.11843443	     85.82032621	     -0.21531650	     -0.24407684	     94.67857529	      0.00000000	      0.00000000	      0.00000000	     89.26117401	     -4.20826383	     -1.86203549	    101.19507389	      0.00000000	      0.00000000	      0.00000000	    -34.95798532	     -3.04767937	     -2.84813400	      0.00000000	      0.00000000	      0.00000000	      0.00000000	      0.00000000	      0.00000000	      0.00000000	      0.00000000	      0.00000000	      0.00000000
     10.93333330	     61.45057250	    -18.79020468	    168.71118753	      0.31645163	      0.77462069	     -0.11701847	     85.61250522	     -0.08088350	     -0.28824890	     94.78961879	      0.00000000	      0.00000000	      0.00000000	     89.22788282	     -4.43366922	     -1.87760092	    101.60122816	      0.00000000	      0.00000000	      0.00000000	    -35.30403257	     -3.04751269	     -2.84464309	      0.00000000	      0.00000000	      0.00000000	      0.00000000	      0.00000000	      0.00000000	      0.00000000	      0.00000000	      0.00000000	      0.00000000
     10.95000000	     60.80250592	    -18.65980565	    168.25974340	      0.32124283	      0.77540765	     -0.11567994	     85.40203568	      0.09987128	     -0.36852091	     94.82971423	      0.00000000	      0.00000000	      0.00000000	     89.21483155	     -4.69737018	     -1.87591443	    102.00905028	      0.00000000	      0.00000000	      0.00000000	    -35.64990191	     -3.05662307	     -2.89275989	      0.00000000	      0.00000000	      0.00000000	      0.00000000	      0.00000000	      0.00000000	      0.00000000	      0.00000000	      0.00000000	      0.00000000
     10.96666670	     60.00351684	    -18.47082873	    167.81476454	      0.32568709	      0.77641304	     -0.11434961	     85.01961776	      0.22286369	     -0.49361507	     94.87397905	      0.00000000	      0.00000000	      0.00000000	     89.02702516	     -4.92101652	     -1.88215042	    102.38858890	      0.00000000	      0.00000000	      0.00000000	    -36.17024381	     -3.02078823	     -2.95775942	      0.00000000	      0.00000000	      0.00000000	      0.00000000	      0.00000000	      0.00000000	      0.00000000	      0.00000000	      0.00000000	      0.00000000
     10.98333330	     59.33686638	    -18.24730081	    167.38464144	      0.33010498	      0.77707883	     -0.11306498	     84.73239778	      0.43017881	     -0.63705526	     94.85101778	      0.00000000	      0.00000000	      0.00000000	     88.96534117	     -5.19052937	     -1.84219569	    102.79428374	      0.00000000	      0.00000000	      0.00000000	    -36.61532784	     -2.98356385	     -3.10813612	      0.00000000	      0.00000000	      0.00000000	      0.00000000	      0.00000000	      0.00000000	      0.00000000	      0.00000000	      0.00000000	      0.00000000
     11.00000000	     58.64260649	    -17.98648857	    166.97380914	      0.33430156	      0.77757547	     -0.11172775	     84.42351551	      0.62780125	     -0.80173336	     94.84912923	      0.00000000	      0.00000000	      0.00000000	     88.87172537	     -5.44521508	     -1.78526038	    103.21524634	      0.00000000	      0.00000000	      0.00000000	    -37.01971899	     -2.89712627	     -3.25673244	      0.00000000	      0.00000000	      0.00000000	      0.00000000	      0.00000000	      0.00000000	      0.00000000	      0.00000000	      0.00000000	      0.00000000
     11.01666670	     57.99026726	    -17.70173803	    166.60647275	      0.33821723	      0.77792064	     -0.11029766	     84.12496245	      0.81500910	     -0.96689216	     94.83683995	      0.00000000	      0.00000000	      0.00000000	     88.79697703	     -5.65831240	     -1.71523251	    103.64529049	      0.00000000	      0.00000000	      0.00000000	    -37.40844232	     -2.78074421	     -3.41400099	      0.00000000	      0.00000000	      0.00000000	      0.00000000	      0.00000000	      0.00000000	      0.00000000	      0.00000000	      0.00000000	      0.00000000
     11.03333330	     57.42088090	    -17.45901235	    166.26328981	      0.34200641	      0.77794849	     -0.10892178	     83.93251138	      1.02123643	     -1.09584753	     94.83242338	      0.00000000	      0.00000000	      0.00000000	     88.78991996	     -5.87909382	     -1.65793124	    104.07443498	      0.00000000	      0.00000000	      0.00000000	    -37.58049251	     -2.66382502	     -3.48464899	      0.00000000	      0.00000000	      0.00000000	      0.00000000	      0.00000000	      0.00000000	      0.00000000	      0.00000000	      0.00000000	      0.00000000
     11.05000000	     56.83596753	    -17.19350309	    165.95534028	      0.34550574	      0.77782639	     -0.10734935	     83.70103642	      1.17954802	     -1.23607340	     94.85201308	      0.00000000	      0.00000000	      0.00000000	     88.75017089	     -6.02548503	     -1.57743140	    104.52103249	      0.00000000	      0.00000000	      0.00000000	    -37.80780625	     -2.48739479	     -3.51623751	      0.00000000	      0.00000000	      0.00000000	      0.00000000	      0.00000000	      0.00000000	      0.00000000	      0.00000000	      0.00000000	      0.00000000
     11.06666670	     56.35631851	    -16.98582009	    165.65733202	      0.34874299	      0.77753782	     -0.10575129	     83.57006333	      1.33181708	     -1.34462254	     94.87613141	      0.00000000	      0.00000000	      0.00000000	     88.78425814	     -6.16250892	     -1.50491539	    104.95537579	      0.00000000	      0.00000000	      0.00000000	    -37.90705530	     -2.32943450	     -3.54775164	      0.00000000	      0.00000000	      0.00000000	      0.00000000	      0.00000000	      0.00000000	      0.00000000	      0.00000000	      0.00000000	      0.00000000
     11.08333330	     55.90746273	    -16.81978023	    165.34566882	      0.35208640	      0.77698599	     -0.10409955	     83.50488246	      1.49012624	     -1.42018531	     94.96550445	      0.00000000	      0.00000000	      0.00000000	     88.86745341	     -6.29052834	     -1.43369966	    105.40019878	      0.00000000	      0.00000000	      0.00000000	    -37.91745574	     -2.18613478	     -3.56834616	      0.00000000	      0.00000000	      0.00000000	      0.00000000	      0.00000000	      0.00000000	      0.00000000	      0.00000000	      0.00000000	      0.00000000
     11.10000000	     55.43887666	    -16.70189425	    165.02306837	      0.35547706	      0.77635389	     -0.10246663	     83.47396643	      1.63879680	     -1.45467577	     95.16526429	      0.00000000	      0.00000000	      0.00000000	     88.94762559	     -6.40548199	     -1.37594444	    105.86416349	      0.00000000	      0.00000000	      0.00000000	    -37.86099937	     -2.05530487	     -3.52709067	      0.00000000	      0.00000000	      0.00000000	      0.00000000	      0.00000000	      0.00000000	      0.00000000	      0.00000000	      0.00000000	      0.00000000
     11.11666670	     54.94873634	    -16.61383162	    164.70069824	      0.35882344	      0.77579241	     -0.10089147	     83.43911401	      1.78105509	     -1.45428190	     95.43642828	      0.00000000	      0.00000000	      0.00000000	     89.01213452	     -6.50873753	     -1.32812946	    106.34534855	      0.00000000	      0.00000000	      0.00000000	    -37.78511237	     -1.95950070	     -3.40979511	      0.00000000	      0.00000000	      0.00000000	      0.00000000	      0.00000000	      0.00000000	      0.00000000	      0.00000000	      0.00000000	      0.00000000
